<?xml version="1.0" standalone="no"?>
<!DOCTYPE svg PUBLIC "-//W3C//DTD SVG 20010904//EN"
 "http://www.w3.org/TR/2001/REC-SVG-20010904/DTD/svg10.dtd">
<svg version="1.0" xmlns="http://www.w3.org/2000/svg"
 width="500.000000pt" height="500.000000pt" viewBox="0 0 500.000000 500.000000"
 preserveAspectRatio="xMidYMid meet">

<g transform="translate(0.000000,500.000000) scale(0.100000,-0.100000)"
fill="#000000" stroke="none">
<path d="M0 2500 l0 -2500 2500 0 2500 0 0 2500 0 2500 -2500 0 -2500 0 0
-2500z m2675 1000 c16 -17 20 -18 34 -6 30 26 57 3 80 -66 24 -73 58 -210 64
-253 4 -28 4 -28 5 5 1 37 -21 171 -34 205 -4 11 -4 17 1 13 4 -4 18 -42 30
-85 l22 -76 13 39 c23 72 83 175 119 205 42 34 63 36 119 9 33 -16 42 -27 48
-54 l6 -35 36 20 c51 27 86 25 111 -7 12 -15 21 -32 20 -38 0 -6 -7 -1 -16 12
-28 40 -33 23 -8 -27 14 -27 25 -56 25 -65 0 -14 5 -14 37 4 45 24 62 25 89 6
11 -8 38 -16 59 -18 33 -3 40 -7 47 -33 12 -41 2 -109 -26 -191 -27 -77 -76
-176 -103 -208 -18 -21 10 0 132 98 86 69 146 94 178 77 21 -11 23 -17 17 -60
-8 -66 -45 -124 -138 -213 -44 -43 -79 -78 -77 -78 1 0 28 12 58 26 41 18 69
24 104 22 46 -3 48 -4 59 -43 l12 -40 6 30 c13 53 20 60 75 63 73 4 103 -16
100 -66 -2 -20 3 -47 9 -59 25 -46 5 -105 -50 -146 -48 -36 -216 -130 -268
-151 -25 -10 -89 -45 -142 -78 l-98 -61 51 -17 c142 -48 165 -134 58 -214 -68
-50 -109 -66 -188 -73 -62 -5 -66 -7 -68 -31 -1 -18 1 -21 8 -11 7 11 9 11 9
-3 0 -31 -34 -54 -108 -73 -40 -10 -72 -21 -72 -24 0 -4 4 -21 10 -40 12 -41
-8 -84 -48 -105 -31 -16 -108 -31 -137 -27 -70 9 -181 92 -211 156 -13 27 -14
18 -8 -86 7 -134 -4 -171 -64 -217 -29 -22 -46 -27 -91 -26 -59 0 -132 27
-128 47 3 19 -48 20 -82 3 -53 -28 -92 -21 -135 24 -21 22 -33 40 -27 40 6 0
11 12 11 26 0 21 -3 25 -17 19 -62 -26 -352 -104 -369 -100 -13 3 -25 16 -28
30 -14 54 40 122 124 159 54 24 13 18 -73 -9 -52 -17 -101 -25 -147 -25 -63 0
-71 2 -86 25 -10 15 -14 37 -12 56 5 30 4 31 -26 24 -125 -27 -211 -24 -289 9
-42 17 -51 31 -11 15 15 -5 29 -7 32 -4 3 3 0 5 -6 5 -6 0 -25 12 -42 26 -24
21 -30 33 -28 56 3 28 0 30 -67 52 -128 41 -174 79 -161 131 10 40 47 57 123
57 41 0 71 4 75 11 6 9 8 9 8 0 0 -7 4 -13 10 -13 6 0 6 9 0 24 -6 18 -4 34
10 61 21 42 26 32 -50 95 -25 21 -25 21 18 0 24 -12 49 -19 55 -17 7 3 -31 25
-83 50 -110 52 -135 75 -126 112 4 17 2 27 -7 31 -14 5 -15 64 -2 105 8 25 58
39 139 39 62 0 201 -19 261 -36 11 -3 4 5 -15 17 -104 65 -139 91 -178 128
-23 23 -42 46 -42 51 0 5 12 16 26 23 17 9 23 17 15 21 -19 12 -12 54 11 70
40 29 109 20 190 -22 77 -41 134 -60 123 -42 -3 5 -8 20 -10 32 -3 12 -15 31
-27 43 -21 19 -22 19 -7 0 28 -35 32 -51 5 -21 -14 17 -22 34 -19 39 3 6 -1
15 -9 21 -17 13 -58 89 -58 109 0 26 41 97 65 113 35 23 92 14 177 -29 38 -18
67 -29 64 -23 -36 82 -56 136 -56 157 0 28 28 53 72 64 15 4 32 20 41 41 10
19 24 37 34 41 19 7 137 -52 161 -82 10 -11 47 -48 83 -83 l66 -62 -5 104 c-2
57 -1 121 2 141 9 44 38 75 71 75 14 0 36 6 48 14 12 8 44 18 70 21 48 7 49 7
92 -40 48 -51 81 -124 98 -220 5 -33 13 -64 17 -68 9 -11 21 107 15 141 -5 24
-4 24 5 7 8 -15 9 -9 4 25 -4 34 -3 41 6 30 8 -12 9 -10 5 10 -6 27 15 88 47
133 23 32 29 33 53 7z"/>
<path d="M3551 3243 c1 -10 5 -29 9 -43 7 -21 8 -19 9 18 1 23 -3 42 -9 42 -5
0 -10 -8 -9 -17z"/>
<path d="M1058 2509 c-31 -17 -20 -27 20 -18 20 5 84 9 142 10 70 1 95 4 75 9
-45 11 -217 11 -237 -1z"/>
<path d="M3097 1660 l-17 -45 21 21 c12 13 19 31 17 45 -2 20 -6 17 -21 -21z"/>
</g>
</svg>
